<svg width="32" height="32" fill="none" xmlns="http://www.w3.org/2000/svg">
  <g clip-path="url(#grommet-icons:google__clip0)">
    <path d="M7.021 13.02A9.436 9.436 0 0116 6.545c2.253 0 4.29.8 5.89 2.11L26.548 4C23.709 1.527 20.073 0 16 0A15.957 15.957 0 001.653 8.867l5.368 4.153z" fill="#EA4335"/>
    <path d="M21.387 24.017c-1.454.938-3.299 1.438-5.387 1.438a9.437 9.437 0 01-8.964-6.431l-5.387 4.09A15.953 15.953 0 0016 32c3.91 0 7.647-1.39 10.445-4l-5.057-3.983h-.001z" fill="#34A853"/>
    <path d="M26.445 28c2.927-2.73 4.827-6.795 4.827-12 0-.947-.145-1.964-.363-2.91H16v6.183h8.581c-.422 2.079-1.56 3.688-3.193 4.744L26.445 28z" fill="#4A90E2"/>
    <path d="M7.036 19.024A9.494 9.494 0 016.546 16c0-1.043.166-2.044.475-2.98L1.653 8.867A15.912 15.912 0 000 16c0 2.56.593 4.973 1.65 7.113l5.386-4.089z" fill="#FBBC05"/>
  </g>
  <defs>
    <clipPath id="grommet-icons:google__clip0">
      <path fill="#fff" d="M0 0h32v32H0z"/>
    </clipPath>
  </defs>
</svg>
