<svg width="35" height="35" fill="none" xmlns="http://www.w3.org/2000/svg">
  <path d="M22.969 2.188a9.842 9.842 0 00-9.42 12.7L2.188 26.25v6.563H8.75L20.112 21.45a9.843 9.843 0 102.857-19.264zm0 17.5a7.67 7.67 0 01-2.223-.33l-1.254-.381-.927.926-3.479 3.48-1.508-1.508-1.547 1.547 1.508 1.508-1.734 1.735-1.508-1.509-1.547 1.547 1.508 1.508-2.414 2.414H4.375v-3.47l10.72-10.72.928-.927-.38-1.254a7.656 7.656 0 117.326 5.434z" fill="#898989"/>
  <path d="M24.063 13.125a2.188 2.188 0 100-4.375 2.188 2.188 0 000 4.375z" fill="#898989"/>
</svg>
